<?xml version="1.0" encoding="utf-8"?>
<!-- Generator: Adobe Illustrator 19.0.0, SVG Export Plug-In . SVG Version: 6.00 Build 0)  -->
<svg version="1.1" id="Layer_1" xmlns="http://www.w3.org/2000/svg" xmlns:xlink="http://www.w3.org/1999/xlink" x="0px" y="0px"
	 viewBox="0 0 313.8 313.8" style="enable-background:new 0 0 313.8 313.8;" xml:space="preserve">
<style type="text/css">
	.st0{fill:#265FAF;}
	.st1{fill:#FCB833;}
</style>
<circle id="XMLID_4_" class="st0" cx="156.9" cy="156.9" r="156.9"/>
<path class="st1" d="M213.5,83.5H100.3c-4.1,0-7.4,3.3-7.4,7.4v113.4c0,4.1,3.3,7.4,7.4,7.4h5.3v8.8c0,0.2,0,0.5,0,0.6
	c0,5.1,4.1,9.2,9.2,9.2c5.1,0,9.2-4.1,9.2-9.2c0-0.2,0-0.5,0-0.6v-8.8h65.8v8.8c0,0.2,0,0.5,0,0.6c0,5.1,4.1,9.2,9.2,9.2
	c5.1,0,9.2-4.1,9.2-9.2c0-0.2,0-0.5,0-0.6v-8.8h5.3c4.1,0,7.4-3.3,7.4-7.4V90.9C220.9,86.9,217.5,83.5,213.5,83.5z M156.9,196.9
	c-13.4,0-25.2-6.7-32.4-16.8c10.1,3.3,21,5.2,32.4,5.2c11.3,0,22.2-1.9,32.4-5.2C182.1,190.2,170.3,196.9,156.9,196.9z M208.5,120.4
	c-5.1,0-9.2,4.1-9.2,9.2c0,5.1,4.1,9.2,9.2,9.2v23.5c0,0.6-0.5,1-1.1,1H106.8c-0.6,0-1.1-0.5-1.1-1v-23.5c5.1,0,9.2-4.1,9.2-9.2
	c0-5.1-4.1-9.2-9.2-9.2V96.9c0-0.6,0.5-1,1.1-1h100.6c0.6,0,1.1,0.5,1.1,1V120.4z"/>
</svg>
