<?xml version="1.0" encoding="utf-8"?>
<!-- Generator: Adobe Illustrator 18.1.1, SVG Export Plug-In . SVG Version: 6.00 Build 0)  -->
<svg version="1.0" id="Layer_1" xmlns="http://www.w3.org/2000/svg" xmlns:xlink="http://www.w3.org/1999/xlink" x="0px" y="0px"
	 viewBox="0 0 19 19" enable-background="new 0 0 19 19" xml:space="preserve">
<g>
	<path fill="#5A5A5A" d="M14.3,8.3c-0.1-0.1-0.3-0.2-0.5-0.2h-3v-3c0-0.2-0.1-0.4-0.2-0.5c-0.1-0.1-0.3-0.2-0.5-0.2H8.8
		c-0.2,0-0.4,0.1-0.5,0.2C8.2,4.8,8.1,5,8.1,5.2v3h-3C5,8.1,4.8,8.2,4.7,8.3C4.6,8.5,4.5,8.6,4.5,8.8v1.4c0,0.2,0.1,0.4,0.2,0.5
		c0.1,0.1,0.3,0.2,0.5,0.2h3v3c0,0.2,0.1,0.4,0.2,0.5c0.1,0.1,0.3,0.2,0.5,0.2h1.4c0.2,0,0.4-0.1,0.5-0.2c0.1-0.1,0.2-0.3,0.2-0.5
		v-3h3c0.2,0,0.4-0.1,0.5-0.2c0.1-0.1,0.2-0.3,0.2-0.5V8.8C14.5,8.6,14.4,8.5,14.3,8.3L14.3,8.3z M14.3,8.3"/>
</g>
<path fill="none" stroke="#5A5A5A" stroke-miterlimit="10" d="M15.5,18.5h-12c-1.7,0-3-1.3-3-3v-12c0-1.7,1.3-3,3-3h12
	c1.7,0,3,1.3,3,3v12C18.5,17.2,17.2,18.5,15.5,18.5z"/>
</svg>
